<?xml version="1.0" encoding="utf-8"?>
<!-- Generator: Adobe Illustrator 21.0.2, SVG Export Plug-In . SVG Version: 6.00 Build 0)  -->
<svg version="1.1" id="Calque_1" xmlns="http://www.w3.org/2000/svg" xmlns:xlink="http://www.w3.org/1999/xlink" x="0px" y="0px"
	 viewBox="0 0 200 200" style="enable-background:new 0 0 200 200;" xml:space="preserve">
<style type="text/css">
	.st0{fill:#FFD700;}
</style>
<path class="st0" d="M155.3,32.5c0,0-44.6,30.8-50.3,31.3c-5.7,0.5-7.6,0.3-12.8,0C87,63.4,40,34.8,40,34.8S22,59,22,76.1
	s28,54.6,29.4,48.9s32.7-13.3,36.5-25.6c3.8-12.3,10.3-10.9,10.3-10.9c8.8-0.5,13,10.4,13.4,13.7c0.5,3.3,40.8,23.3,40.8,23.3
	s22.3-22.9,25.1-46.5C180.4,55.3,155.3,32.5,155.3,32.5z M50,75.2C55.5,62.9,72.3,79,72.3,79C67.1,85.7,48.3,79,50,75.2z
	 M125.9,77.7c0,0,18.5-14.1,22.6-1.3C149.8,80.5,130.3,85,125.9,77.7z"/>
<g>
	<path class="st0" d="M94.5,148.2c0,0-1.4,4.3-8.1,6.2c-4.2,1.2-27,12.8-29.4,12.8s0-10.9,0-10.9c0.5-6.6,28.5-19.4,28.5-19.4
		c7.7-3.8,9,11.4,9,13.3"/>
	<path class="st0" d="M105.3,148.2c0,0,1.4,4.3,8.1,6.2c4.2,1.2,27,12.8,29.4,12.8c2.4,0,0-10.9,0-10.9
		c-0.5-6.6-28.5-19.4-28.5-19.4c-7.7-3.8-9,11.4-9,13.3"/>
</g>
</svg>
