<?xml version="1.0" encoding="utf-8"?>
<!-- Generator: Adobe Illustrator 21.0.2, SVG Export Plug-In . SVG Version: 6.00 Build 0)  -->
<svg version="1.1" id="Calque_1" xmlns="http://www.w3.org/2000/svg" xmlns:xlink="http://www.w3.org/1999/xlink" x="0px" y="0px"
	 viewBox="0 0 595.3 841.9" style="enable-background:new 0 0 595.3 841.9;" xml:space="preserve">
<style type="text/css">
	.st0{fill:none;stroke:#006666;stroke-width:13;stroke-miterlimit:10;enable-background:new    ;}
	.st1{fill:#006666;}
</style>
<path class="st0" d="M278.9,186.7c-31.6,0-62.2,6.2-91,18.4c-27.9,11.8-52.9,28.6-74.3,50.1c-21.5,21.5-38.3,46.5-50.1,74.3
	c-12.2,28.8-18.4,59.5-18.4,91c0,31.6,6.2,62.2,18.4,91c11.8,27.9,28.6,52.9,50.1,74.3s46.5,38.3,74.3,50.1
	c28.8,12.2,59.5,18.4,91,18.4c31.6,0,62.2-6.2,91-18.4c27.9-11.8,52.9-28.6,74.3-50.1c21.5-21.5,38.3-46.5,50.1-74.3
	c12.2-28.8,18.4-59.5,18.4-91c0-31.6-6.2-62.2-18.4-91c-11.8-27.9-28.6-52.9-50.1-74.3c-21.5-21.5-46.5-38.3-74.3-50.1
	C341.1,192.8,310.5,186.7,278.9,186.7L278.9,186.7z"/>
<circle class="st1" cx="278.9" cy="186.7" r="32.9"/>
<circle class="st1" cx="278.9" cy="421" r="55.8"/>
</svg>
