<?xml version="1.0" encoding="utf-8"?>
<!-- Generator: Adobe Illustrator 21.0.2, SVG Export Plug-In . SVG Version: 6.00 Build 0)  -->
<svg version="1.1" id="Calque_1" xmlns="http://www.w3.org/2000/svg" xmlns:xlink="http://www.w3.org/1999/xlink" x="0px" y="0px"
	 viewBox="0 0 595.3 841.9" style="enable-background:new 0 0 595.3 841.9;" xml:space="preserve">
<style type="text/css">
	.st0{fill:#006666;}
</style>
<g>
	<path class="st0" d="M283.7,235l24,97.2l75.8-65.5l-32.4,94.8l99.1-14.1l-78.5,62.2l91,41.7l-99.7,9.9l54,84.3L328,500l-0.1,100.1
		l-50.4-86.5l-54.2,84.2l4.4-100l-91.1,41.5l57.8-81.8L95.1,443l92.8-37.6l-75.6-65.7l98.4,18.6l-28.1-96.1l72.8,68.8L283.7,235
		 M284.5,200.5l-9.4,31.9l-24.2,82l-62.1-58.7l-24.1-22.8l9.3,31.9l24,82l-84-15.8l-32.7-6.2l25.1,21.8l64.5,56l-79.2,32.1
		l-30.8,12.5l32.9,4.8l84.6,12.3L129.1,534l-19.2,27.2l30.3-13.8l77.8-35.4l-3.7,85.4l-1.4,33.2l18-27.9l46.3-71.8l43,73.8
		l16.7,28.7l0-33.2l0.1-85.5l76.1,38.9l29.6,15.1l-17.9-28l-46.1-72l85-8.5l33.1-3.3l-30.2-13.8l-77.7-35.6l67-53.1l26-20.7
		l-32.9,4.7l-84.6,12.1l27.6-80.9l10.7-31.5l-25.1,21.7l-64.7,55.9l-20.5-83L284.5,200.5L284.5,200.5z"/>
</g>
<path class="st0" d="M278.9,210.2c116.2,0,210.3,94.2,210.3,210.3s-94.2,210.3-210.3,210.3S68.6,536.7,68.6,420.5
	S162.8,210.2,278.9,210.2 M278.9,193.2c-30.7,0-60.5,6-88.5,17.9c-27.1,11.4-51.4,27.8-72.2,48.7C97.3,280.7,81,305,69.5,332
	c-11.9,28-17.9,57.8-17.9,88.5c0,30.7,6,60.5,17.9,88.5c11.4,27.1,27.8,51.4,48.7,72.2c20.9,20.9,45.2,37.3,72.2,48.7
	c28,11.9,57.8,17.9,88.5,17.9c30.7,0,60.5-6,88.5-17.9c27.1-11.4,51.4-27.8,72.2-48.7c20.9-20.9,37.3-45.2,48.7-72.2
	c11.9-28,17.9-57.8,17.9-88.5c0-30.7-6-60.5-17.9-88.5c-11.4-27.1-27.8-51.4-48.7-72.2c-20.9-20.9-45.2-37.3-72.2-48.7
	C339.4,199.2,309.6,193.2,278.9,193.2L278.9,193.2z"/>
<path class="st0" d="M278.9,515.8c-52.6,0-95.3-42.8-95.3-95.3c0-52.6,42.8-95.3,95.3-95.3s95.3,42.8,95.3,95.3
	C374.3,473.1,331.5,515.8,278.9,515.8z M278.9,333.2c-48.1,0-87.3,39.2-87.3,87.3c0,48.1,39.2,87.3,87.3,87.3
	c48.1,0,87.3-39.2,87.3-87.3C366.3,372.4,327.1,333.2,278.9,333.2z"/>
<path class="st0" d="M278.9,451.8c-51.3,0-89.4-27.1-90.9-28.2c-1.2-0.8-1.9-2.2-1.9-3.6s0.7-2.8,1.9-3.6
	c1.6-1.2,39.7-28.2,90.9-28.2c51.3,0,88.4,27.1,90,28.3c1.1,0.8,1.8,2.2,1.8,3.6s-0.7,2.8-1.8,3.6
	C367.4,424.7,330.3,451.8,278.9,451.8z M199,419.9c12.2,7.3,42.7,22.9,80,22.9c37.2,0,67.2-15.6,79.1-22.9
	c-11.9-7.2-41.9-22.9-79.1-22.9C241.7,397,211.2,412.6,199,419.9z"/>
<circle class="st0" cx="278.9" cy="420.9" r="21.7"/>
</svg>
