<?xml version="1.0" encoding="utf-8"?>
<!-- Generator: Adobe Illustrator 21.0.2, SVG Export Plug-In . SVG Version: 6.00 Build 0)  -->
<svg version="1.1" id="Calque_1" xmlns="http://www.w3.org/2000/svg" xmlns:xlink="http://www.w3.org/1999/xlink" x="0px" y="0px"
	 viewBox="0 0 200 200" style="enable-background:new 0 0 200 200;" xml:space="preserve">
<style type="text/css">
	.st0{fill:#016767;}
</style>
<path class="st0" d="M99.9,163.9c-8.9,0-17.4-1.7-25.5-5.2c-7.8-3.3-14.8-8-20.8-14.1c-6-6-10.7-13-14.1-20.8
	c-3.4-8.1-5.2-16.7-5.2-25.5c0-8.9,1.7-17.4,5.2-25.5c3.3-7.8,8.1-14.8,14.1-20.8c6-6,13-10.7,20.8-14.1c8.1-3.4,16.7-5.2,25.5-5.2
	c8.9,0,17.5,1.7,25.5,5.2c7.8,3.3,14.8,8,20.8,14.1c6,6,10.7,13,14.1,20.8c3.4,8.1,5.2,16.7,5.2,25.5c0,8.9-1.7,17.4-5.2,25.5
	c-3.3,7.8-8.1,14.8-14.1,20.8c-6,6-13,10.7-20.8,14.1C117.4,162.2,108.8,163.9,99.9,163.9z M99.9,36.3c-8.4,0-16.5,1.6-24.1,4.9
	c-7.4,3.1-14.1,7.6-19.7,13.3c-5.7,5.7-10.2,12.3-13.3,19.7c-3.2,7.6-4.9,15.8-4.9,24.1c0,8.4,1.6,16.5,4.9,24.1
	c3.1,7.4,7.6,14.1,13.3,19.7c5.7,5.7,12.4,10.2,19.7,13.3c7.6,3.2,15.8,4.9,24.1,4.9c8.4,0,16.5-1.6,24.1-4.9
	c7.4-3.1,14.1-7.6,19.7-13.3c5.7-5.7,10.2-12.3,13.3-19.7c3.2-7.6,4.9-15.8,4.9-24.1s-1.6-16.5-4.9-24.1
	c-3.1-7.4-7.6-14.1-13.3-19.7c-5.7-5.7-12.3-10.2-19.7-13.3C116.5,37.9,108.3,36.3,99.9,36.3z"/>
<circle class="st0" cx="99.9" cy="34.5" r="9"/>
<circle class="st0" cx="99.9" cy="98.4" r="15.2"/>
</svg>
