<?xml version="1.0" encoding="utf-8"?>
<!-- Generator: Adobe Illustrator 21.0.2, SVG Export Plug-In . SVG Version: 6.00 Build 0)  -->
<svg version="1.1" id="Calque_1" xmlns="http://www.w3.org/2000/svg" xmlns:xlink="http://www.w3.org/1999/xlink" x="0px" y="0px"
	 viewBox="0 0 200 200" style="enable-background:new 0 0 200 200;" xml:space="preserve">
<style type="text/css">
	.st0{fill:#016767;}
</style>
<path class="st0" d="M64.2,147c-16,0-28.9-15-28.9-33.4s13-33.4,28.9-33.4c16,0,28.9,15,28.9,33.4S80.1,147,64.2,147z M64.2,84.3
	c-13.7,0-24.8,13.1-24.8,29.3s11.1,29.3,24.8,29.3c13.7,0,24.8-13.1,24.8-29.3S77.9,84.3,64.2,84.3z"/>
<path class="st0" d="M137.1,147c-16,0-28.9-15-28.9-33.4s13-33.4,28.9-33.4s28.9,15,28.9,33.4S153.1,147,137.1,147z M137.1,84.3
	c-13.7,0-24.8,13.1-24.8,29.3s11.1,29.3,24.8,29.3s24.8-13.1,24.8-29.3S150.8,84.3,137.1,84.3z"/>
<path class="st0" d="M114.8,126.6c-5.6-12.5,1-18.8,1-18.8l74.5-68.6L156.9,50c-25.1-17.8-56.9-17.4-56.9-17.4S68,32.3,42.9,50
	L9.5,39.2L84,107.8c0,0,6.6,6.3,1,18.8s-12.5,15.3-12.5,15.3l27.4,26.5l27.4-26.5C127.3,141.9,120.3,139.1,114.8,126.6z M72.8,71.7
	c3.4-2.3,7.1-4.2,11-5.7l9.9,34.5L72.8,71.7z M94,63.4c2.4-0.3,4.8-0.5,7.2-0.5c2.1,0,4.2,0.1,6.3,0.4l-7.1,38.4L94,63.4z M117,65.5
	c4,1.4,7.9,3.2,11.5,5.5L107,100.5L117,65.5z"/>
</svg>
