<?xml version="1.0" encoding="utf-8"?>
<!-- Generator: Adobe Illustrator 21.0.2, SVG Export Plug-In . SVG Version: 6.00 Build 0)  -->
<svg version="1.1" id="Calque_1" xmlns="http://www.w3.org/2000/svg" xmlns:xlink="http://www.w3.org/1999/xlink" x="0px" y="0px"
	 viewBox="0 0 200 200" style="enable-background:new 0 0 200 200;" xml:space="preserve">
<style type="text/css">
	.st0{fill:#016767;}
</style>
<g>
	<path class="st0" d="M101.3,44.8l7.1,28.8l22.5-19.4l-9.6,28.1l29.4-4.2l-23.3,18.4l27,12.4l-29.5,2.9l16,25l-26.4-13.5l0,29.7
		l-14.9-25.6l-16.1,25l1.3-29.6l-27,12.3l17.1-24.2l-29.4-4.3l27.5-11.1L50.5,75.9l29.2,5.5l-8.3-28.5l21.6,20.4L101.3,44.8
		 M101.6,34.6l-2.8,9.5l-7.2,24.3L73.2,51l-7.1-6.8l2.8,9.5L75.9,78L51,73.3l-9.7-1.8l7.4,6.5l19.1,16.6L44.4,104l-9.1,3.7l9.7,1.4
		l25.1,3.6l-14.6,20.7l-5.7,8.1l9-4.1l23.1-10.5l-1.1,25.3l-0.4,9.8l5.3-8.3l13.7-21.3l12.7,21.9l4.9,8.5v-9.8l0-25.3l22.6,11.5
		l8.8,4.5l-5.3-8.3l-13.7-21.3l25.2-2.5l9.8-1l-8.9-4.1l-23-10.5l19.9-15.7l7.7-6.1l-9.7,1.4l-25.1,3.6l8.2-24l3.2-9.3l-7.4,6.4
		L110,68.8l-6.1-24.6L101.6,34.6L101.6,34.6z"/>
</g>
<path class="st0" d="M99.9,37.5c34.4,0,62.3,27.9,62.3,62.3s-27.9,62.3-62.3,62.3s-62.3-27.9-62.3-62.3S65.5,37.5,99.9,37.5
	 M99.9,32.5c-9.1,0-17.9,1.8-26.2,5.3c-8,3.4-15.2,8.2-21.4,14.4c-6.2,6.2-11,13.4-14.4,21.4c-3.5,8.3-5.3,17.1-5.3,26.2
	s1.8,17.9,5.3,26.2c3.4,8,8.2,15.2,14.4,21.4c6.2,6.2,13.4,11.1,21.4,14.4c8.3,3.5,17.1,5.3,26.2,5.3s17.9-1.8,26.2-5.3
	c8-3.4,15.2-8.2,21.4-14.4c6.2-6.2,11.1-13.4,14.4-21.4c3.5-8.3,5.3-17.1,5.3-26.2s-1.8-17.9-5.3-26.2c-3.4-8-8.2-15.2-14.4-21.4
	c-6.2-6.2-13.4-11.1-21.4-14.4C117.8,34.2,109,32.5,99.9,32.5L99.9,32.5z"/>
<path class="st0" d="M99.9,128.1c-15.6,0-28.2-12.7-28.2-28.2c0-15.6,12.7-28.2,28.2-28.2s28.2,12.7,28.2,28.2
	C128.2,115.4,115.5,128.1,99.9,128.1z M99.9,73.9C85.7,73.9,74,85.6,74,99.8c0,14.3,11.6,25.9,25.9,25.9s25.9-11.6,25.9-25.9
	C125.8,85.6,114.2,73.9,99.9,73.9z"/>
<path class="st0" d="M99.9,109.1c-15.2,0-26.5-8-26.9-8.4c-0.4-0.2-0.6-0.7-0.6-1.1s0.2-0.8,0.6-1.1c0.5-0.4,11.8-8.4,26.9-8.4
	c15.2,0,26.2,8,26.7,8.4c0.3,0.2,0.5,0.7,0.5,1.1s-0.2,0.8-0.5,1.1C126.1,101.1,115.1,109.1,99.9,109.1z M76.2,99.6
	c3.6,2.2,12.7,6.8,23.7,6.8c11,0,19.9-4.6,23.4-6.8c-3.5-2.1-12.4-6.8-23.4-6.8C88.9,92.8,79.8,97.5,76.2,99.6z"/>
<circle class="st0" cx="99.9" cy="99.9" r="6.4"/>
</svg>
