<?xml version="1.0" encoding="utf-8"?>
<!-- Generator: Adobe Illustrator 21.0.2, SVG Export Plug-In . SVG Version: 6.00 Build 0)  -->
<svg version="1.1" id="Calque_1" xmlns="http://www.w3.org/2000/svg" xmlns:xlink="http://www.w3.org/1999/xlink" x="0px" y="0px"
	 viewBox="0 0 200 200" style="enable-background:new 0 0 200 200;" xml:space="preserve">
<style type="text/css">
	.st0{fill:#016767;}
	.st1{fill:#FFFFFF;}
</style>
<g>
	<path class="st0" d="M143.7,56.2c1.1-0.9,2.3-1.8,3.4-2.9c3.2-3,6.3-6.1,9.4-9.1c0.1-0.1,0.1-0.2,0.2-0.4c1.7-2.3,1-4.9,1.5-7.3
		c0.1-0.7-0.2-1.4-0.3-2c-1.1,0.3-2.8,1-2.9,0.9c-1-1.4-2.8-0.8-4.1-1.4c-0.7-0.3-1.6-0.2-2.4-0.3c0.1-0.3,0.1-0.7,0.2-1.2
		c-3.6,0.3-5.6,2.2-7.8,4.3c0.8,1.1,1.8,2.1,2.2,3.2c0.4,0.9,0.7,2.2,0.2,3c-1.4,2.3-3.1,4.4-4.9,6.5c-0.6,0.7-1.7,1.4-2.6,1.6
		c-2,0.4-4.2,0-6,0.7c-2.6,1-4.9,2.5-7.1,4c-1.7,1.2-2.3,3.2-5.2,3.4c-1.2,0.1-2.8,1.6-3.1,2.6c-0.5,2.1,3.6,5.1,6.1,4.8
		c4.1-0.5,6,1,4.5,4.2c-1.5,3.3-4.2,6.2-6.5,9.2c-0.7,0.9-1.8,0.7-2.6-0.2c-0.8-1-1.5-2.1-2.4-3c-0.8-0.9-1.7-1.6-2.9-0.1
		c-1.9,2.3-4.4,4.3-7.3,5.8c-0.9,0.5-1.3,1.7-1.9,2.6c1.1,0.5,2.1,1,3.2,1.5c0.7,0.3,1.7,0.6,2.1,1.1c0.7,0.8,1,1.8,1.5,2.7
		c1.3,2.4,2,5,0.3,7.4c-1.3,2-1,3.8-0.4,5.8c0.1,0.4,0.4,0.8,0.3,1.2c-0.3,3,1.8,4.7,4.5,6.1c1.1,0.6,1.9,1.6,3.1,2.7
		c-2.1,0.8-3.7,1.4-5.2,2c-2.3,4.6-0.3,8.7,2.8,12.6c2-1.4,4.2-2.4,5.5-3.8c2.9-3.3,5.5-6.8,7.9-10.3c0.8-1.2,1.2-2.9-1-4.1
		c-3.1-1.6-3.5-4.6-3.7-7.1c-0.1-1.6,1.7-3.4,2.8-5c0.7-1.1,1.5-1.5,2.9-0.2c1,0.9,3.1,1.8,4.3,1.5c1.5-0.4,3.2-1.8,3.7-3.1
		c1-2.9,3.9-3.5,6.3-4.2c3.9-1.1,8-1.7,10.5-4.9c0.1-0.2,0.4-0.3,0.6-0.2c2,0.4,2.4-1,3.2-2c1-1.3,2.2-2,4.1-1.6
		c1.8,0.3,3.4-0.2,4.5-1.6c1.7-2.3,3.5-4.6,5.6-6.6c2.1-2.1,3.4-4.1,0.5-6.4c-0.2-0.2-0.1-0.6-0.1-0.9c-0.4-2-0.7-4-1.1-5.9
		c-2.2,0.2-4.3,0.4-6.7,0.6c1.8-2.9-1.6-3.5-2.2-4.7c-2.2,0.3-4.2,1-6.1,0.8C151.5,57.8,147.9,56.9,143.7,56.2z M29.5,61.5
		c-0.1,0.9-0.1,1.7-0.3,2.5c-0.3,1.6-0.4,3.4-1.3,4.7c-1.4,2-1.6,3.1-0.1,4.9c2.2,2.5,4.3,5.3,6.7,7.7c0.9,0.9,2.7,1.3,4.2,1.8
		c1,0.3,2.4,0,3,0.5c1.7,1.3,3.6,2.5,5.2,3.8c2.9,2.3,6.2,3.2,9.7,4.3c2.6,0.9,5.7,1.1,6.9,4.1c0.5,1.4,2.2,2.9,3.8,3.3
		c1.2,0.3,3.3-0.7,4.5-1.6c1.3-1,1.9-0.7,2.7,0.2c2,2.3,4.2,4.5,2.2,7.7c-1,1.6-1.6,3.5-3.1,4.6c-2.1,1.5-1.7,3-0.9,4.4
		c3.2,5.4,6.9,10.5,13.3,13.8c3.2-2.6,4.3-7.5,3.1-12.3c-1.7-0.7-3.2-1.3-5.5-2.1c1.4-1.1,2.5-2,3.4-2.9c1.5-1.4,3.4-2.6,4.2-4.3
		c0.9-1.7,0.9-3.8,1-5.7c0.1-0.8-0.6-1.7-0.8-2.6c-0.3-1.7-0.9-3.5-0.7-5.2c0.2-1.6,1.6-2.9,2.1-4.5c0.4-1.3,1.1-1.7,2.6-1.9
		c1.1-0.2,2.6-0.8,2.8-1.5c0.2-0.7-0.7-1.8-1.5-2.5c-1.6-1.2-3.5-2.2-5.1-3.4c-1-0.7-1.8-1.6-2.4-2.5c-1.1-1.6-2-0.8-2.9,0.1
		c-0.8,0.9-1.5,1.9-2.2,2.9c-1,1.2-2.1,1.2-3.1,0c-2.1-2.6-4.5-5.1-5.9-7.9c-1.6-3.3-1.1-6,5-5.1c0.8,0.1,2-0.3,2.7-0.8
		c0.8-0.6,1.4-1.5,2-2.3c1.5-2.1,0.1-4.3-2.8-4.6c-0.8-0.1-1.7-0.4-2.2-0.9c-2.1-1.9-3.9-3.9-6.6-5.2c-1.2-0.6-2.6-1-3.9-1.1
		c-4.2-0.3-7.9-1-9.6-4.9c-0.6-1.3-2.1-2.3-2.7-3.5c-0.5-1-0.5-2.3-0.3-3.4c0.2-0.9,1.2-1.7,1.8-2.6c0.2-0.3,0.3-0.9,0.1-1.1
		c-1.9-1.9-3.9-3.5-7.2-3.9c0,0.6,0,1,0,1.3c-1.8,0.2-4.4-0.2-5,0.5c-1.7,2.1-2.8,0.5-4.7-0.1c0.1,1.7,0.6,3.2,0.4,4.6
		c-0.4,3.4,1.2,5.8,4,8c1,0.8,1.9,1.8,2.9,2.7c1.5,1.4,3.1,2.8,4.7,4.3c0.9,0.8,1.7,1.7,2.6,2.6c-3.7,0.4-7.1,0.6-10.3,1.3
		c-2.7,0.6-4.8,0.6-7.1-0.8c-1,1.7-3.9,2.5-2.5,5.2C33.9,61.9,31.9,61.7,29.5,61.5z M118.4,167.5c1.5-0.8,3.3-1.5,4.6-2.5
		c0.9-0.7,1.3-2,1.8-3c1.1-1.9,2.2-3.8,3.1-5.7c0.3-0.5,0.5-1.5,0.2-1.7c-1.4-1.2-0.5-2,0.4-2.8c3.4-3.1,5.8-6.6,6.5-10.8
		c1.2,0,2.5,0.4,3.2-0.1c4.4-2.7,8.7-5.4,10.7-10c0.4-0.9,1.6-1.7,2.7-2c3.1-0.8,4.3-2.7,2.9-5.2c-0.3-0.6-0.2-1.3-0.3-2
		c-0.2-1-0.4-2-0.6-3c-2.5,0.9-2.4-1.2-3.6-2.2c-1.7,1.1-3.5,2.3-5.2,3.5c-0.3-0.5-0.6-1-0.9-1.6c-4.6,2.5-8.3,5.5-11,9.4
		c-0.4,0.5-1,1.1-1.6,1.3c-3.3,0.8-5.7,3.8-5.3,6.6c0.3,2,0.6,4,0.6,6.1c0,0.7-0.5,1.6-1.1,1.9c-1.8,1.1-3.7,2.3-5.8,2.8
		c-3.9,0.9-4,3.3-4.3,6c-0.2,2.5-0.7,4.9-1.4,7.3c-0.6,2.1,0.2,4.5,2.1,5.7C117,165.9,117.5,166.6,118.4,167.5z M49.7,116.6
		c-0.9,0.9-1.6,1.9-2.6,2.3c-1.6,0.7-2,1.1-1.8,2.5c0.1,0.8,0,1.8-0.3,2.5c-1.1,2.2,0.1,4.2,3,4.9c1,0.2,2.4,1,2.7,1.8
		c1.3,3.4,4.2,5.6,7.2,7.9c1.9,1.4,3.7,3.5,6.2,2.5c1.8,3,3.4,5.8,5.2,8.6c1.2,1.8,4.5,2.9,2.4,5.6c1.8,3.3,3.3,6.7,5.5,9.8
		c0.8,1.2,3.2,1.7,4.7,2.5c0.7-0.9,1-1.7,1.4-1.8c3.5-0.9,3.2-3.9,2.5-5.3c-1.4-3.4-1.3-6.8-1.7-10.2c-0.1-1-0.9-2.3-1.9-2.8
		c-2.3-1.3-4.8-2.4-7.3-3.4c-1.5-0.6-1.9-1.3-1.7-2.5c0.3-2,0.5-4,0.7-6.1c0.3-2.5-2.4-5.7-5.2-6.4c-0.7-0.2-1.4-0.7-1.7-1.1
		c-2.7-3.9-6.3-6.9-10.8-9.3c-0.1-0.1-0.3,0-0.4,0c-0.3,0.5-0.5,1-0.7,1.3C53,118.7,51.3,117.6,49.7,116.6z M41.9,98.9
		c0.4,1.3,0.2,3.1,1.2,3.8c3.1,2.2,5.8,4.7,7.9,7.6c0.2,0.3,0.7,0.6,1.1,0.8c2.1,1.1,3.4,0.5,4.3-1.4c1.5-3.4-1.3-6.2-1.4-9.3
		c0-0.2-0.4-0.5-0.6-0.6c-2.8-1.1-5.5-2.2-8.3-3.1C43.6,95.9,42.4,96.7,41.9,98.9z M157.8,98.9c-0.1-2.2-1.4-3-4-2.2
		c-1.7,0.5-3.1,1.7-4.7,2c-3.7,0.5-4.8,2.6-5.2,5.2c-0.3,1.9-0.6,3.8-0.4,5.7c0.3,2.1,2.1,2.6,4.2,1.4c0.9-0.5,1.5-1.4,2.2-2
		c1.7-1.6,3.1-3.5,5.1-4.7C157.5,102.7,157.8,100.9,157.8,98.9z M106.2,78.9c-0.3-0.4-0.6-0.8-0.9-1.2c-1.1,0.2-2.2,0.5-3.3,0.6
		c-1.3,0.1-2.7,0.1-4.1,0c-1.1-0.1-2.2-0.4-3.3-0.6c-0.3,0.4-0.7,0.8-1,1.3c1.8,1.1,3.5,2.3,5.3,3.3c0.5,0.2,1.5,0.3,1.9,0
		C102.7,81.2,104.4,80,106.2,78.9z M49.3,56c-0.7-1.3-1.2-2.9-1.8-3c-1.2-0.1-2.4,0.7-4.2,1.4C45.6,55,47.1,55.4,49.3,56z
		 M150.7,55.9c2.1-0.6,3.6-1,5.1-1.4c0.1-0.2,0.1-0.3,0.2-0.5c-1.3-0.4-2.6-1-3.8-1C151.7,53.1,151.3,54.7,150.7,55.9z M67.9,152.9
		c0.9-2.6,0.4-3.3-2-3.3C66.5,150.7,67,151.5,67.9,152.9z M134,149.4c-2.7,0.6-3.1,1.4-1.8,3.3C132.9,151.5,133.3,150.6,134,149.4z"
		/>
	<path class="st0" d="M143.7,56.2c4.1,0.7,7.7,1.6,11.4,2c1.9,0.2,3.9-0.5,6.1-0.8c0.6,1.2,3.9,1.8,2.2,4.7c2.5-0.2,4.5-0.4,6.7-0.6
		c0.3,1.9,0.7,3.9,1.1,5.9c0.1,0.3-0.1,0.8,0.1,0.9c2.9,2.3,1.6,4.3-0.5,6.4c-2.1,2.1-3.8,4.3-5.6,6.6c-1.1,1.5-2.7,1.9-4.5,1.6
		c-1.9-0.3-3.2,0.4-4.1,1.6c-0.7,1-1.2,2.3-3.2,2c-0.2,0-0.5,0.1-0.6,0.2c-2.5,3.2-6.6,3.8-10.5,4.9c-2.4,0.7-5.3,1.3-6.3,4.2
		c-0.4,1.3-2.1,2.7-3.7,3.1c-1.2,0.3-3.2-0.6-4.3-1.5c-1.4-1.3-2.2-0.9-2.9,0.2c-1.1,1.6-2.9,3.4-2.8,5c0.2,2.5,0.7,5.5,3.7,7.1
		c2.2,1.2,1.8,2.9,1,4.1c-2.4,3.6-5,7-7.9,10.3c-1.3,1.5-3.5,2.5-5.5,3.8c-3.2-4-5.1-8-2.8-12.6c1.6-0.6,3.1-1.2,5.2-2
		c-1.3-1.1-2-2.1-3.1-2.7c-2.7-1.5-4.8-3.1-4.5-6.1c0-0.4-0.2-0.8-0.3-1.2c-0.7-2-1-3.8,0.4-5.8c1.7-2.4,0.9-5-0.3-7.4
		c-0.5-0.9-0.8-1.9-1.5-2.7c-0.4-0.5-1.4-0.7-2.1-1.1c-1.1-0.5-2.1-1-3.2-1.5c0.6-0.9,1-2.1,1.9-2.6c2.9-1.6,5.4-3.4,7.3-5.8
		c1.3-1.5,2.1-0.8,2.9,0.1c0.9,1,1.6,2,2.4,3c0.8,1,1.9,1.1,2.6,0.2c2.3-3,4.9-5.9,6.5-9.2c1.5-3.2-0.4-4.6-4.5-4.2
		c-2.5,0.3-6.7-2.7-6.1-4.8c0.3-1.1,1.9-2.5,3.1-2.6c2.8-0.2,3.5-2.2,5.2-3.4c2.2-1.6,4.5-3,7.1-4c1.7-0.7,4-0.3,6-0.7
		c1-0.2,2-0.9,2.6-1.6c1.8-2.1,3.5-4.2,4.9-6.5c0.5-0.8,0.2-2.1-0.2-3c-0.5-1.1-1.4-2.1-2.2-3.2c2.1-2,4.2-3.9,7.8-4.3
		c-0.1,0.6-0.1,0.9-0.2,1.2c0.8,0.1,1.8,0,2.4,0.3c1.3,0.6,3.1,0,4.1,1.4c0.1,0.2,1.8-0.5,2.9-0.9c0.1,0.6,0.5,1.3,0.3,2
		c-0.5,2.5,0.3,5.1-1.5,7.3c-0.1,0.1-0.1,0.3-0.2,0.4c-3.1,3-6.2,6.1-9.4,9.1C146,54.3,144.8,55.3,143.7,56.2z"/>
	<path class="st0" d="M29.5,61.5c2.4,0.2,4.4,0.4,6.7,0.6c-1.4-2.6,1.5-3.5,2.5-5.2c2.2,1.4,4.4,1.5,7.1,0.8
		c3.2-0.7,6.6-0.9,10.3-1.3c-0.9-0.9-1.7-1.8-2.6-2.6c-1.5-1.4-3.1-2.8-4.7-4.3c-1-0.9-1.8-1.9-2.9-2.7c-2.8-2.2-4.4-4.7-4-8
		c0.2-1.4-0.2-2.9-0.4-4.6c1.9,0.6,3.1,2.2,4.7,0.1c0.6-0.7,3.2-0.4,5-0.5c0-0.3,0-0.7,0-1.3c3.2,0.4,5.3,2.1,7.2,3.9
		c0.2,0.2,0.1,0.7-0.1,1.1c-0.6,0.9-1.5,1.7-1.8,2.6c-0.3,1.1-0.2,2.4,0.3,3.4c0.6,1.3,2.1,2.3,2.7,3.5c1.7,3.8,5.4,4.5,9.6,4.9
		c1.3,0.1,2.7,0.6,3.9,1.1c2.7,1.2,4.6,3.3,6.6,5.2c0.5,0.5,1.4,0.8,2.2,0.9c3,0.3,4.4,2.5,2.8,4.6c-0.6,0.8-1.2,1.7-2,2.3
		c-0.7,0.5-1.8,0.9-2.7,0.8c-6.1-0.9-6.6,1.8-5,5.1c1.4,2.8,3.8,5.3,5.9,7.9c0.9,1.1,2.1,1.2,3.1,0c0.8-1,1.4-2,2.2-2.9
		c0.8-0.9,1.7-1.7,2.9-0.1c0.7,0.9,1.5,1.8,2.4,2.5c1.6,1.2,3.5,2.1,5.1,3.4c0.8,0.6,1.8,1.8,1.5,2.5c-0.2,0.7-1.7,1.3-2.8,1.5
		c-1.5,0.2-2.2,0.6-2.6,1.9c-0.5,1.6-1.9,2.9-2.1,4.5c-0.3,1.7,0.3,3.5,0.7,5.2c0.1,0.9,0.8,1.7,0.8,2.6c-0.1,1.9-0.1,4-1,5.7
		c-0.8,1.6-2.7,2.9-4.2,4.3c-1,0.9-2,1.7-3.4,2.9c2.2,0.9,3.7,1.5,5.5,2.1c1.3,4.9,0.1,9.8-3.1,12.3c-6.4-3.3-10-8.4-13.3-13.8
		c-0.8-1.4-1.2-2.9,0.9-4.4c1.5-1.1,2.1-3,3.1-4.6c2-3.1-0.3-5.4-2.2-7.7c-0.8-0.9-1.4-1.2-2.7-0.2c-1.1,0.9-3.2,1.9-4.5,1.6
		c-1.5-0.4-3.3-1.9-3.8-3.3c-1.2-3-4.3-3.2-6.9-4.1c-3.4-1.1-6.8-2-9.7-4.3c-1.6-1.3-3.5-2.5-5.2-3.8c-0.6-0.5-2-0.2-3-0.5
		c-1.5-0.5-3.2-0.8-4.2-1.8c-2.4-2.4-4.5-5.1-6.7-7.7c-1.5-1.7-1.3-2.9,0.1-4.9c0.9-1.3,0.9-3.1,1.3-4.7
		C29.4,63.2,29.4,62.3,29.5,61.5z"/>
	<path class="st0" d="M118.4,167.5c-1-1-1.4-1.6-2-2c-2-1.2-2.8-3.6-2.1-5.7c0.7-2.4,1.2-4.8,1.4-7.3c0.2-2.7,0.4-5.1,4.3-6
		c2.1-0.5,3.9-1.7,5.8-2.8c0.6-0.4,1.1-1.3,1.1-1.9c-0.1-2-0.4-4.1-0.6-6.1c-0.3-2.9,2.1-5.8,5.3-6.6c0.6-0.2,1.2-0.8,1.6-1.3
		c2.7-3.9,6.4-6.9,11-9.4c0.3,0.6,0.6,1.1,0.9,1.6c1.7-1.1,3.5-2.3,5.2-3.5c1.1,1,1.1,3,3.6,2.2c0.2,1,0.4,2,0.6,3
		c0.1,0.7,0,1.4,0.3,2c1.4,2.5,0.3,4.4-2.9,5.2c-1.1,0.3-2.3,1.2-2.7,2c-2,4.6-6.3,7.3-10.7,10c-0.7,0.4-2,0.1-3.2,0.1
		c-0.7,4.2-3.2,7.7-6.5,10.8c-0.9,0.9-1.9,1.6-0.4,2.8c0.3,0.2,0.1,1.2-0.2,1.7c-1,1.9-2.1,3.8-3.1,5.7c-0.6,1-0.9,2.3-1.8,3
		C121.7,166.1,119.9,166.7,118.4,167.5z"/>
	<path class="st0" d="M49.7,116.6c1.5,1,3.2,2.1,5.1,3.4c0.2-0.4,0.5-0.9,0.7-1.3c0.2,0,0.4-0.1,0.4,0c4.5,2.4,8.2,5.4,10.8,9.3
		c0.3,0.5,1,1,1.7,1.1c2.8,0.7,5.5,3.9,5.2,6.4c-0.3,2-0.4,4-0.7,6.1c-0.2,1.2,0.3,2,1.7,2.5c2.5,1,5.1,2,7.3,3.4
		c1,0.6,1.8,1.8,1.9,2.8c0.4,3.4,0.3,6.8,1.7,10.2c0.6,1.5,1,4.4-2.5,5.3c-0.5,0.1-0.8,0.9-1.4,1.8c-1.5-0.8-3.9-1.3-4.7-2.5
		c-2.2-3.1-3.7-6.5-5.5-9.8c2.1-2.7-1.2-3.8-2.4-5.6c-1.8-2.7-3.4-5.6-5.2-8.6c-2.6,0.9-4.4-1.1-6.2-2.5c-3-2.2-5.9-4.5-7.2-7.9
		c-0.3-0.8-1.6-1.5-2.7-1.8c-2.8-0.7-4.1-2.6-3-4.9c0.4-0.8,0.5-1.7,0.3-2.5c-0.2-1.4,0.2-1.8,1.8-2.5
		C48.1,118.5,48.8,117.4,49.7,116.6z"/>
	<path class="st0" d="M41.9,98.9c0.6-2.1,1.8-2.9,4.2-2.2c2.8,0.9,5.6,2,8.3,3.1c0.3,0.1,0.6,0.4,0.6,0.6c0.1,3.1,2.9,5.9,1.4,9.3
		c-0.9,2-2.2,2.6-4.3,1.4c-0.4-0.2-0.9-0.4-1.1-0.8c-2.1-2.9-4.8-5.3-7.9-7.6C42.1,102,42.2,100.2,41.9,98.9z"/>
	<path class="st0" d="M157.8,98.9c-0.1,2-0.4,3.8-2.7,5.2c-2,1.2-3.4,3.2-5.1,4.7c-0.7,0.7-1.4,1.6-2.2,2c-2.1,1.2-3.9,0.7-4.2-1.4
		c-0.3-1.9,0.1-3.8,0.4-5.7c0.4-2.6,1.4-4.7,5.2-5.2c1.7-0.2,3.1-1.5,4.7-2C156.4,95.9,157.7,96.7,157.8,98.9z"/>
	<path class="st0" d="M106.2,78.9c-1.8,1.1-3.5,2.3-5.3,3.4c-0.4,0.2-1.4,0.2-1.9,0c-1.8-1-3.6-2.2-5.3-3.3c0.3-0.4,0.7-0.8,1-1.3
		c1.1,0.2,2.2,0.5,3.3,0.6c1.3,0.1,2.7,0.1,4.1,0c1.1-0.1,2.2-0.4,3.3-0.6C105.6,78.1,105.9,78.5,106.2,78.9z"/>
	<path class="st0" d="M49.3,56c-2.2-0.6-3.7-1-6-1.6c1.8-0.7,3-1.5,4.2-1.4C48.1,53,48.5,54.7,49.3,56z"/>
	<path class="st0" d="M150.7,55.9c0.6-1.2,0.9-2.9,1.4-2.9c1.3-0.1,2.5,0.6,3.8,1c-0.1,0.2-0.1,0.3-0.2,0.5
		C154.3,55,152.8,55.4,150.7,55.9z"/>
	<path class="st0" d="M67.9,152.9c-0.8-1.4-1.4-2.2-2-3.3C68.3,149.6,68.7,150.3,67.9,152.9z"/>
	<path class="st0" d="M134,149.4c-0.7,1.2-1.2,2.1-1.8,3.3C130.9,150.7,131.3,150,134,149.4z"/>
</g>
<path class="st1" d="M71.6,81c0,0-0.1,1.7-1.4,3.1c-1.3,1.5,1.4,3.7,1.4,3.7s1.8,0.5,3-0.7c1.2-1.2,5.2,0.6,3.5-1.8
	c-1.6-2.4,0-3.7-1.7-4.8c-1.7-1.1,0.4-0.9-3.9-1.7c-4.3-0.9-4.3-0.9-4.3-0.9l-4.6-0.3L63,78.9l4.8,0.7L71.6,81z"/>
<path class="st1" d="M127.8,81c0,0,0.1,1.7,1.4,3.1c1.3,1.5-1.4,3.7-1.4,3.7s-1.8,0.5-3-0.7c-1.2-1.2-5.2,0.6-3.5-1.8
	c1.6-2.4,0-3.7,1.7-4.8c1.7-1.1-0.4-0.9,3.9-1.7c4.3-0.9,4.3-0.9,4.3-0.9l4.6-0.3l0.7,1.5l-4.8,0.7L127.8,81z"/>
</svg>
