<?xml version="1.0" encoding="utf-8"?>
<!-- Generator: Adobe Illustrator 21.0.2, SVG Export Plug-In . SVG Version: 6.00 Build 0)  -->
<svg version="1.1" id="Calque_1" xmlns="http://www.w3.org/2000/svg" xmlns:xlink="http://www.w3.org/1999/xlink" x="0px" y="0px"
	 viewBox="0 0 200 200" style="enable-background:new 0 0 200 200;" xml:space="preserve">
<style type="text/css">
	.st0{fill:#FFD700;}
</style>
<g>
	<path class="st0" d="M96.7,82.7c-1.6-1.2-3.5-2.2-5.1-3.4c-1-0.7-1.8-1.6-2.4-2.5c-1.1-1.6-2-0.8-2.9,0.1c-0.8,0.9-1.5,1.9-2.2,2.9
		c-1,1.2-2.1,1.2-3.1,0c-2.1-2.6-4.5-5.1-5.9-7.9c-1.6-3.3-1.1-6,5-5.1c0.8,0.1,2-0.3,2.7-0.8c0.8-0.6,1.4-1.5,2-2.3
		c1.5-2.1,0.1-4.3-2.8-4.6c-0.8-0.1-1.7-0.4-2.2-0.9c-2.1-1.9-3.9-3.9-6.6-5.2c-1.2-0.6-2.6-1-3.9-1.1c-4.2-0.3-7.9-1-9.6-4.9
		c-0.6-1.3-2.1-2.3-2.7-3.5c-0.5-1-0.5-2.3-0.3-3.4c0.2-0.9,1.2-1.7,1.8-2.6c0.2-0.3,0.3-0.9,0.1-1.1c-1.9-1.9-3.9-3.5-7.2-3.9
		c0,0.6,0,1,0,1.3c-1.8,0.2-4.4-0.2-5,0.5c-1.7,2.1-2.8,0.5-4.7-0.1c0.1,1.7,0.6,3.2,0.4,4.6c-0.4,3.4,1.2,5.8,4,8
		c1,0.8,1.9,1.8,2.9,2.7c1.5,1.4,3.1,2.8,4.7,4.3c0.9,0.8,1.7,1.7,2.6,2.6c-3.7,0.4-7.1,0.6-10.3,1.3c-2.7,0.6-4.8,0.6-7.1-0.8
		c-1,1.7-3.9,2.5-2.5,5.2c-2.5-0.2-4.5-0.4-6.9-0.6c-0.1,0.9-0.1,1.7-0.3,2.5c-0.3,1.6-0.4,3.4-1.3,4.7c-1.4,2-1.6,3.1-0.1,4.9
		c2.2,2.5,4.3,5.3,6.7,7.7c0.9,0.9,2.7,1.3,4.2,1.8c1,0.3,2.4,0,3,0.5c1.7,1.3,3.6,2.5,5.2,3.8c2.9,2.3,6.2,3.2,9.7,4.3
		c2.6,0.9,5.7,1.1,6.9,4.1c0.5,1.4,2.2,2.9,3.8,3.3c1.2,0.3,3.3-0.7,4.5-1.6c1.3-1,1.9-0.7,2.7,0.2c2,2.3,4.2,4.5,2.2,7.7
		c-1,1.6-1.6,3.5-3.1,4.6c-2.1,1.5-1.7,3-0.9,4.4c3.2,5.4,6.9,10.5,13.3,13.8c3.2-2.6,4.3-7.5,3.1-12.3c-1.7-0.7-3.2-1.3-5.5-2.1
		c1.4-1.1,2.5-2,3.4-2.9c1.5-1.4,3.4-2.6,4.2-4.3c0.9-1.7,0.9-3.8,1-5.7c0.1-0.8-0.6-1.7-0.8-2.6c-0.3-1.7-0.9-3.5-0.7-5.2
		c0.2-1.6,1.6-2.9,2.1-4.5c0.4-1.3,1.1-1.7,2.6-1.9c1.1-0.2,2.6-0.8,2.8-1.5C98.4,84.5,97.5,83.4,96.7,82.7z M74.6,87.1
		c-1.2,1.2-3,0.7-3,0.7s-2.7-2.2-1.4-3.7c1.3-1.4,1.4-3.1,1.4-3.1l-3.8-1.4L63,78.9l0.6-1.3l4.6,0.3c0,0,0,0,4.3,0.9
		c4.3,0.8,2.2,0.6,3.9,1.7c1.7,1.1,0.1,2.4,1.7,4.8C79.8,87.7,75.8,85.9,74.6,87.1z"/>
	<path class="st0" d="M47.5,53c-1.2-0.1-2.4,0.7-4.2,1.4c2.3,0.6,3.8,1,6,1.6C48.6,54.7,48.1,53.1,47.5,53z"/>
	<path class="st0" d="M84.1,150.2c-0.1-1-0.9-2.3-1.9-2.8c-2.3-1.3-4.8-2.4-7.3-3.4c-1.5-0.6-1.9-1.3-1.7-2.5c0.3-2,0.5-4,0.7-6.1
		c0.3-2.5-2.4-5.7-5.2-6.4c-0.7-0.2-1.4-0.7-1.7-1.1c-2.7-3.9-6.3-6.9-10.8-9.3c-0.1-0.1-0.3,0-0.4,0c-0.3,0.5-0.5,1-0.7,1.3
		c-2.1-1.2-3.8-2.3-5.4-3.3c-0.9,0.9-1.6,1.9-2.6,2.3c-1.6,0.7-2,1.1-1.8,2.5c0.1,0.8,0,1.8-0.3,2.5c-1.1,2.2,0.1,4.2,3,4.9
		c1,0.2,2.4,1,2.7,1.8c1.3,3.4,4.2,5.6,7.2,7.9c1.9,1.4,3.7,3.5,6.2,2.5c1.8,3,3.4,5.8,5.2,8.6c1.2,1.8,4.5,2.9,2.4,5.6
		c1.8,3.3,3.3,6.7,5.5,9.8c0.8,1.2,3.2,1.7,4.7,2.5c0.7-0.9,1-1.7,1.4-1.8c3.5-0.9,3.2-3.9,2.5-5.3C84.4,157,84.5,153.6,84.1,150.2z
		"/>
	<path class="st0" d="M105.3,77.7c-1.1,0.2-2.2,0.5-3.3,0.6c-1.3,0.1-2.7,0.1-4.1,0c-1.1-0.1-2.2-0.4-3.3-0.6
		c-0.3,0.4-0.7,0.8-1,1.3c1.8,1.1,3.5,2.3,5.3,3.3c0.5,0.2,1.5,0.3,1.9,0c1.9-1.1,3.6-2.3,5.4-3.4C105.9,78.5,105.6,78.1,105.3,77.7
		z"/>
	<path class="st0" d="M65.9,149.6c0.6,1.1,1.1,1.9,2,3.3C68.8,150.3,68.3,149.6,65.9,149.6z"/>
	<path class="st0" d="M51,110.3c0.2,0.3,0.7,0.6,1.1,0.8c2.1,1.1,3.4,0.5,4.3-1.4c1.5-3.4-1.3-6.2-1.4-9.3c0-0.2-0.4-0.5-0.6-0.6
		c-2.8-1.1-5.5-2.2-8.3-3.1c-2.5-0.8-3.7,0-4.2,2.2c0.4,1.3,0.2,3.1,1.2,3.8C46.2,104.9,48.9,107.4,51,110.3z"/>
	<path class="st0" d="M150.7,55.9c2.1-0.6,3.6-1,5.1-1.4c0.1-0.2,0.1-0.3,0.2-0.5c-1.3-0.4-2.6-1-3.8-1
		C151.7,53.1,151.3,54.7,150.7,55.9z"/>
	<path class="st0" d="M171.3,68.6c-0.2-0.2-0.1-0.6-0.1-0.9c-0.4-2-0.7-4-1.1-5.9c-2.2,0.2-4.3,0.4-6.7,0.6c1.8-2.9-1.6-3.5-2.2-4.7
		c-2.2,0.3-4.2,1-6.1,0.8c-3.6-0.7-7.2-1.6-11.4-2.3c1.1-0.9,2.3-1.8,3.4-2.9c3.2-3,6.3-6.1,9.4-9.1c0.1-0.1,0.1-0.2,0.2-0.4
		c1.7-2.3,1-4.9,1.5-7.3c0.1-0.7-0.2-1.4-0.3-2c-1.1,0.3-2.8,1-2.9,0.9c-1-1.4-2.8-0.8-4.1-1.4c-0.7-0.3-1.6-0.2-2.4-0.3
		c0.1-0.3,0.1-0.7,0.2-1.2c-3.6,0.3-5.6,2.2-7.8,4.3c0.8,1.1,1.8,2.1,2.2,3.2c0.4,0.9,0.7,2.2,0.2,3c-1.4,2.3-3.1,4.4-4.9,6.5
		c-0.6,0.7-1.7,1.4-2.6,1.6c-2,0.4-4.2,0-6,0.7c-2.6,1-4.9,2.5-7.1,4c-1.7,1.2-2.3,3.2-5.2,3.4c-1.2,0.1-2.8,1.6-3.1,2.6
		c-0.5,2.1,3.6,5.1,6.1,4.8c4.1-0.5,6,1,4.5,4.2c-1.5,3.3-4.2,6.2-6.5,9.2c-0.7,0.9-1.8,0.7-2.6-0.2c-0.8-1-1.5-2.1-2.4-3
		c-0.8-0.9-1.7-1.6-2.9-0.1c-1.9,2.3-4.4,4.3-7.3,5.8c-0.9,0.5-1.3,1.7-1.9,2.6c1.1,0.5,2.1,1,3.2,1.5c0.7,0.3,1.7,0.6,2.1,1.1
		c0.7,0.8,1,1.8,1.5,2.7c1.3,2.4,2,5,0.3,7.4c-1.3,2-1,3.8-0.4,5.8c0.1,0.4,0.4,0.8,0.3,1.2c-0.3,3,1.8,4.7,4.5,6.1
		c1.1,0.6,1.9,1.6,3.1,2.7c-2.1,0.8-3.7,1.4-5.2,2c-2.3,4.6-0.3,8.7,2.8,12.6c2-1.4,4.2-2.4,5.5-3.8c2.9-3.3,5.5-6.8,7.9-10.3
		c0.8-1.2,1.2-2.9-1-4.1c-3.1-1.6-3.5-4.6-3.7-7.1c-0.1-1.6,1.7-3.4,2.8-5c0.7-1.1,1.5-1.5,2.9-0.2c1,0.9,3.1,1.8,4.3,1.5
		c1.5-0.4,3.2-1.8,3.7-3.1c1-2.9,3.9-3.5,6.3-4.2c3.9-1.1,8-1.7,10.5-4.9c0.1-0.2,0.4-0.3,0.6-0.2c2,0.4,2.4-1,3.2-2
		c1-1.3,2.2-2,4.1-1.6c1.8,0.3,3.4-0.2,4.5-1.6c1.7-2.3,3.5-4.6,5.6-6.6C172.9,72.9,174.2,70.9,171.3,68.6z M131.7,79.8l-3.9,1.2
		c0,0,0.1,1.7,1.4,3.1c1.3,1.5-1.4,3.7-1.4,3.7s-1.8,0.5-3-0.7c-1.2-1.2-5.2,0.6-3.5-1.8c1.6-2.4,0-3.7,1.7-4.8
		c1.7-1.1-0.4-0.9,3.9-1.7c4.3-0.9,4.3-0.9,4.3-0.9l4.6-0.3l0.7,1.5L131.7,79.8z"/>
	<path class="st0" d="M153.8,96.7c-1.7,0.5-3.1,1.7-4.7,2c-3.7,0.5-4.8,2.6-5.2,5.2c-0.3,1.9-0.6,3.8-0.4,5.7
		c0.3,2.1,2.1,2.6,4.2,1.4c0.9-0.5,1.5-1.4,2.2-2c1.7-1.6,3.1-3.5,5.1-4.7c2.5-1.6,2.8-3.4,2.8-5.4
		C157.7,96.7,156.4,95.9,153.8,96.7z"/>
	<path class="st0" d="M154.2,121.7c-0.2-1-0.4-2-0.6-3c-2.5,0.9-2.4-1.2-3.6-2.2c-1.7,1.1-3.5,2.3-5.2,3.5c-0.3-0.5-0.6-1-0.9-1.6
		c-4.6,2.5-8.3,5.5-11,9.4c-0.4,0.5-1,1.1-1.6,1.3c-3.3,0.8-5.7,3.8-5.3,6.6c0.3,2,0.6,4,0.6,6.1c0,0.7-0.5,1.6-1.1,1.9
		c-1.8,1.1-3.7,2.3-5.8,2.8c-3.9,0.9-4,3.3-4.3,6c-0.2,2.5-0.7,4.9-1.4,7.3c-0.6,2.1,0.2,4.5,2.1,5.7c0.9,0.4,1.4,1.1,2.3,2
		c1.5-0.8,3.3-1.5,4.6-2.5c0.9-0.7,1.3-2,1.8-3c1.1-1.9,2.2-3.8,3.1-5.7c0.3-0.5,0.5-1.5,0.2-1.7c-1.4-1.2-0.5-2,0.4-2.8
		c3.4-3.1,5.8-6.6,6.5-10.8c1.2,0,2.5,0.4,3.2-0.1c4.4-2.7,8.7-5.4,10.7-10c0.4-0.9,1.6-1.7,2.7-2c3.1-0.8,4.3-2.7,2.9-5.2
		C154.2,123.1,154.3,122.4,154.2,121.7z"/>
	<path class="st0" d="M132.2,152.7c0.7-1.2,1.1-2.1,1.8-3.3C131.3,150,130.9,150.8,132.2,152.7z"/>
</g>
</svg>
