<?xml version="1.0" encoding="utf-8"?>
<!-- Generator: Adobe Illustrator 21.0.2, SVG Export Plug-In . SVG Version: 6.00 Build 0)  -->
<svg version="1.1" id="Calque_1" xmlns="http://www.w3.org/2000/svg" xmlns:xlink="http://www.w3.org/1999/xlink" x="0px" y="0px"
	 viewBox="0 0 200 200" style="enable-background:new 0 0 200 200;" xml:space="preserve">
<style type="text/css">
	.st0{fill:#FFD700;}
</style>
<path class="st0" d="M162.1,73.7c-3.4-8.1-8.3-15.3-14.5-21.5s-13.4-11.1-21.5-14.5c-8.3-3.5-17.2-5.3-26.3-5.3s-18,1.8-26.3,5.3
	C65.4,41.1,58.2,46,52,52.2S40.9,65.6,37.5,73.7C34,82,32.2,90.9,32.2,100s1.8,18,5.3,26.3c3.4,8.1,8.3,15.3,14.5,21.5
	s13.4,11.1,21.5,14.5c8.3,3.5,17.2,5.3,26.3,5.3s18-1.8,26.3-5.3c8.1-3.4,15.3-8.3,21.5-14.5s11.1-13.4,14.5-21.5
	c3.5-8.3,5.3-17.2,5.3-26.3S165.7,82,162.1,73.7z M119.4,155.1c-3.5,2.4-19.5,2.4-19.5,2.4s-15.9-0.3-19.5-2.4
	c0,0-33.4-56.4-31.3-70.1c1.7-11.2,5.2-33,37.9-42.3c0,0-9.6,26.2-9.4,36C78,95,95.8,149,100,149s21.9-54,22.4-70.3
	c0.3-9.8-9.1-36-9.1-36c32.6,9.2,36.9,31,37.6,42.3C151.6,100.1,119.4,155.1,119.4,155.1z"/>
</svg>
